<svg xmlns="http://www.w3.org/2000/svg" width="400" height="300" viewBox="0 0 400 300" role="img" aria-label="BKNR ERP app preview">
  <defs>
    <linearGradient id="page" x1="0" y1="0" x2="400" y2="300" gradientUnits="userSpaceOnUse">
      <stop stop-color="#f8fafc"/>
      <stop offset="0.55" stop-color="#edf5fb"/>
      <stop offset="1" stop-color="#dce9f4"/>
    </linearGradient>
    <linearGradient id="seal" x1="124" y1="54" x2="274" y2="212" gradientUnits="userSpaceOnUse">
      <stop stop-color="#062a4f"/>
      <stop offset="0.52" stop-color="#0f5fa8"/>
      <stop offset="1" stop-color="#1db6e8"/>
    </linearGradient>
    <linearGradient id="panel" x1="82" y1="220" x2="318" y2="274" gradientUnits="userSpaceOnUse">
      <stop stop-color="#ffffff" stop-opacity="0.92"/>
      <stop offset="1" stop-color="#f8fafc" stop-opacity="0.86"/>
    </linearGradient>
    <filter id="softShadow" x="-30%" y="-30%" width="160%" height="160%">
      <feDropShadow dx="0" dy="18" stdDeviation="16" flood-color="#0f172a" flood-opacity="0.14"/>
    </filter>
  </defs>
  <rect width="400" height="300" fill="url(#page)"/>
  <circle cx="98" cy="72" r="88" fill="#38bdf8" opacity="0.10"/>
  <circle cx="330" cy="242" r="105" fill="#0f5fa8" opacity="0.10"/>
  <rect x="132" y="44" width="136" height="136" rx="34" fill="url(#seal)" filter="url(#softShadow)"/>
  <rect x="148" y="60" width="104" height="104" rx="25" fill="none" stroke="#ffffff" stroke-opacity="0.2" stroke-width="2"/>
  <path d="M151 69c34-15 73-12 111 12v-5c0-9-7-16-16-16h-82c-6 0-11 3-13 9Z" fill="#ffffff" opacity="0.22"/>
  <text x="200" y="124" text-anchor="middle" font-family="Inter, Arial, sans-serif" font-size="42" font-weight="900" letter-spacing="-1" fill="#ffffff">BK</text>
  <text x="200" y="149" text-anchor="middle" font-family="Inter, Arial, sans-serif" font-size="14" font-weight="800" letter-spacing="4" fill="#d9f6ff">ERP</text>
  <rect x="72" y="210" width="256" height="52" rx="18" fill="url(#panel)" stroke="#d6e2ec" filter="url(#softShadow)"/>
  <text x="200" y="233" text-anchor="middle" font-family="Inter, Arial, sans-serif" font-size="18" font-weight="900" letter-spacing="1" fill="#0f172a">BKNR ERP</text>
  <text x="200" y="252" text-anchor="middle" font-family="Inter, Arial, sans-serif" font-size="9" font-weight="800" letter-spacing="2" fill="#0f5fa8">ENTERPRISE WORKSPACE</text>
  <rect x="320" y="231" width="48" height="48" rx="14" fill="#ffffff" stroke="#d6e2ec" filter="url(#softShadow)"/>
  <rect x="331" y="242" width="26" height="26" rx="8" fill="url(#seal)"/>
  <text x="344" y="260" text-anchor="middle" font-family="Inter, Arial, sans-serif" font-size="11" font-weight="900" fill="#ffffff">BK</text>
</svg>
